<?xml version="1.0" encoding="UTF-8"?>
<svg version="1.1" xmlns="http://www.w3.org/2000/svg" width="2000" height="2000">
<path d="M0 0 C0.88522339 0.08485657 1.77044678 0.16971313 2.68249512 0.25714111 C16.48870626 1.58249553 30.25009085 3.18346365 44 5 C44.91465027 5.12032593 45.82930054 5.24065186 46.77166748 5.36462402 C141.1747057 17.87604469 233.40479779 44.76176246 338 92 C339.01126953 92.47405273 340.02253906 92.94810547 341.06445312 93.43652344 C371.96908985 107.9758827 401.87334787 124.17036303 431 142 C431.90766113 142.55349121 432.81532227 143.10698242 433.75048828 143.67724609 C454.76394196 156.52460716 475.36841871 170.1673425 495.24755859 184.71875 C497.32284782 186.23604143 499.40603492 187.74227127 501.48828125 189.25 C510.61716375 195.88935479 519.51503475 202.73292701 528.2265625 209.91015625 C531.83211503 212.87840101 535.5008958 215.75849491 539.1875 218.625 C545.37464808 223.45356908 551.38391725 228.46709385 557.33935547 233.57763672 C559.05623967 235.04817 560.77948682 236.51096923 562.50390625 237.97265625 C569.26520386 243.71730107 575.888404 249.57559985 582.37890625 255.625 C584.97570971 258.04142167 584.97570971 258.04142167 587.83984375 260.1875 C588.90912109 261.0846875 588.90912109 261.0846875 590 262 C590 262.66 590 263.32 590 264 C590.54140625 264.21269531 591.0828125 264.42539062 591.640625 264.64453125 C594.85324891 266.49019433 597.20549275 269.03964611 599.75 271.6875 C603.09311573 275.10339104 606.4152993 278.46653253 610.0625 281.5625 C616.55724475 287.11009448 622.72656112 293.2326261 628.25 299.75 C631.77634167 303.89259556 635.63781571 307.67467396 639.5 311.5 C643.95819481 315.91988304 648.35180031 320.32585546 652.40625 325.125 C654.34325871 327.40383378 656.35905625 329.60324657 658.375 331.8125 C662.23022386 336.08310151 665.87582515 340.48773669 669.4921875 344.9609375 C672.3883188 348.47057948 675.37680579 351.89018597 678.375 355.3125 C683.53386687 361.2191371 688.44969471 367.26882714 693.25 373.46875 C695.63518936 376.54818757 698.07608238 379.57897619 700.52880859 382.60473633 C705.72881905 389.03066456 710.67041037 395.57780744 715.41796875 402.34375 C717.1603637 404.82621236 718.93432778 407.28066808 720.73828125 409.71875 C745.48048289 443.2640184 767.66855987 478.86587817 787.60839844 515.44775391 C788.60592829 517.27725866 789.60698991 519.10483943 790.61035156 520.93115234 C832.92231864 598.06802782 863.7325016 680.55816158 906.3125 899.4375 C906.42567566 900.56612961 906.42567566 900.56612961 906.5411377 901.71755981 C907.1083218 907.47266524 907.5730149 913.2329094 908 919 C908.08613556 920.14554352 908.17227112 921.29108704 908.26101685 922.47134399 C909.98521398 946.1289282 910.36470222 969.7259381 910.31805801 993.44077301 C910.31240997 996.35901444 910.30959445 999.27725004 910.30697632 1002.19549561 C910.27154277 1029.36799739 909.98774631 1056.4044771 907.25323486 1083.46270752 C906.98427066 1086.15760046 906.73086938 1088.85365953 906.47998047 1091.55029297 C903.82341495 1119.88408552 899.97679723 1147.98154748 895 1176 C894.85302673 1176.82810181 894.70605347 1177.65620361 894.55462646 1178.50939941 C887.08997182 1220.26050648 876.76415374 1261.62338225 863.66027832 1301.95983887 C862.99992665 1304.00022664 862.34784747 1306.04308168 861.69824219 1308.08691406 C851.20949603 1341.04125897 838.64460577 1373.16611509 824.47607422 1404.70556641 C822.86145625 1408.30921426 821.2764528 1411.92482877 819.70532227 1415.54760742 C817.03666319 1421.60561429 814.2618454 1427.58892532 811.28125 1433.5 C810.93635529 1434.18650635 810.59146057 1434.8730127 810.2361145 1435.58032227 C809.15940923 1437.72122893 808.08000764 1439.86075764 807 1442 C806.66425964 1442.66628418 806.32851929 1443.33256836 805.98260498 1444.01904297 C797.02346083 1461.78920998 787.7937657 1479.27781502 777.56835938 1496.35986328 C775.58422279 1499.69990889 773.65586886 1503.0701333 771.72973633 1506.44384766 C757.01514215 1532.1711846 740.39371383 1557.00808063 723 1581 C722.45956055 1581.74620605 721.91912109 1582.49241211 721.36230469 1583.26123047 C710.02965277 1598.86542042 698.29600327 1614.14232939 686 1629 C684.56231259 1630.77068118 683.12481798 1632.54151892 681.6875 1634.3125 C674.10061655 1643.58094401 666.29650397 1652.66850861 658.23046875 1661.5234375 C656.35684751 1663.60378052 654.51298026 1665.7040625 652.67578125 1667.81640625 C649.19217228 1671.80404452 645.62317799 1675.70158452 642 1679.5625 C641.3620752 1680.2428833 640.72415039 1680.9232666 640.06689453 1681.62426758 C633.75095545 1688.32404399 627.25777578 1694.84037434 620.70654297 1701.30932617 C616.7763229 1705.20299913 612.87771984 1709.12806669 608.98046875 1713.0546875 C607.54165542 1714.50088274 606.10235519 1715.94659145 604.6628418 1717.39208984 C603.68374233 1718.376212 602.70554305 1719.36123062 601.72827148 1720.34716797 C596.55849307 1725.56137076 591.36285497 1730.68959548 585.78100586 1735.46630859 C583.00733785 1737.85481887 580.35673407 1740.37127697 577.6875 1742.875 C572.91589105 1747.31465293 568.0183201 1751.51659141 562.93359375 1755.59765625 C559.45096441 1758.4496097 556.0722482 1761.40827123 552.6875 1764.375 C546.77470633 1769.53952821 540.7178596 1774.45972409 534.51171875 1779.265625 C531.52446683 1781.57951755 528.58345821 1783.94573109 525.64892578 1786.32592773 C516.33127397 1793.86849379 506.71161179 1800.97493019 497 1808 C496.33371582 1808.4837207 495.66743164 1808.96744141 494.98095703 1809.46582031 C469.65167962 1827.7990234 443.30812017 1845.07213674 416.23388672 1860.70947266 C414.71063244 1861.58946415 413.18888179 1862.47206231 411.66845703 1863.35693359 C390.58728747 1875.62195378 369.18727952 1887.23327557 347.1015625 1897.58984375 C343.36363171 1899.34298982 339.66848944 1901.15913546 335.99462891 1903.04223633 C255.65412365 1944.1986482 164.38260645 1969.84723164 -24.37469482 1995.83601379 C-26.45274387 1995.96581637 -28.53013365 1996.10616903 -30.60723877 1996.25028992 C-41.78309333 1996.99895551 -52.91884848 1997.16340961 -64.1171875 1997.16796875 C-66.02686587 1997.17119887 -67.93654401 1997.1745641 -69.84622192 1997.17805481 C-73.83482432 1997.18399979 -77.82340522 1997.18589992 -81.81201172 1997.18530273 C-85.82182387 1997.18522212 -89.83152021 1997.19206881 -93.84130859 1997.20581055 C-118.96880203 1997.2905315 -143.93726148 1996.88032715 -169 1995 C-170.48285492 1994.88998154 -170.48285492 1994.88998154 -171.9956665 1994.77774048 C-177.38079981 1994.3662096 -182.7533709 1993.87211628 -188.125 1993.3125 C-188.91964661 1993.23140991 -189.71429321 1993.15031982 -190.53302002 1993.06677246 C-241.73439202 1987.79350432 -292.11336523 1978.57944166 -342 1966 C-343.07749512 1965.73053558 -343.07749512 1965.73053558 -344.17675781 1965.45562744 C-392.24389677 1953.43178065 -439.66237996 1936.9682678 -485 1917 C-486.71098877 1916.25049072 -486.71098877 1916.25049072 -488.45654297 1915.48583984 C-523.5905519 1900.05916096 -558.15329712 1883.36256187 -591.13427734 1863.70263672 C-593.95244226 1862.02825589 -596.78075652 1860.3726081 -599.61328125 1858.72265625 C-609.09764183 1853.18655898 -618.4792532 1847.51268773 -627.75 1841.625 C-629.07088623 1840.78678711 -629.07088623 1840.78678711 -630.41845703 1839.93164062 C-635.63229325 1836.59399171 -640.73254849 1833.12417412 -645.78955078 1829.55371094 C-648.34804036 1827.75536461 -650.94648103 1826.02589258 -653.5625 1824.3125 C-667.05618216 1815.33387943 -680.05758314 1805.76577042 -692.91015625 1795.89453125 C-696.74785368 1792.94838372 -700.61450771 1790.04593476 -704.50292969 1787.16723633 C-711.20494549 1782.20135396 -717.65788034 1777.03419319 -723.9765625 1771.58984375 C-726.84284949 1769.13461342 -729.75225284 1766.74704147 -732.6875 1764.375 C-737.13903808 1760.75165505 -741.42382455 1756.98036128 -745.66796875 1753.1171875 C-747.75823889 1751.21948831 -749.86986115 1749.35266585 -752 1747.5 C-763.3464003 1737.60304005 -774.61534801 1727.53051617 -785.17578125 1716.79296875 C-787.05537183 1714.94557672 -789.00277139 1713.21908459 -791 1711.5 C-796.42403847 1706.81898049 -801.48126062 1701.8334305 -806.125 1696.375 C-810.24827183 1691.54681285 -814.81837239 1687.15974595 -819.37744141 1682.74755859 C-819.97347168 1682.16312988 -820.56950195 1681.57870117 -821.18359375 1680.9765625 C-821.72556396 1680.45143066 -822.26753418 1679.92629883 -822.82592773 1679.38525391 C-824 1678 -824 1678 -824 1676 C-824.66 1676 -825.32 1676 -826 1676 C-827.41015625 1674.6015625 -827.41015625 1674.6015625 -829.0625 1672.625 C-831.77923786 1669.42453655 -834.54335219 1666.28693937 -837.375 1663.1875 C-841.32687937 1658.81364029 -845.05275365 1654.29027878 -848.7578125 1649.70703125 C-850.89483782 1647.12696409 -853.10735745 1644.65285515 -855.375 1642.1875 C-859.35261685 1637.81762681 -863.00876594 1633.26390464 -866.62792969 1628.59887695 C-870.22465939 1623.96606507 -873.90897488 1619.412485 -877.625 1614.875 C-882.92698239 1608.37629326 -888.06069525 1601.78008789 -893 1595 C-893.47904785 1594.34306152 -893.9580957 1593.68612305 -894.45166016 1593.00927734 C-897.77447145 1588.44468045 -901.07703795 1583.865882 -904.36669922 1579.27734375 C-905.41349065 1577.81778165 -906.46185156 1576.35934314 -907.51220703 1574.90234375 C-916.42132082 1562.53502832 -924.75907132 1549.81997355 -933 1537 C-933.53125488 1536.17741699 -934.06250977 1535.35483398 -934.60986328 1534.50732422 C-943.16238934 1521.24829716 -951.15207956 1507.68584791 -959 1494 C-959.82274414 1492.57518311 -959.82274414 1492.57518311 -960.66210938 1491.12158203 C-978.21359026 1460.66860937 -993.97903426 1429.22519315 -1008 1397 C-1008.27954529 1396.35969849 -1008.55909058 1395.71939697 -1008.84710693 1395.05969238 C-1041.63405186 1319.90145091 -1064.78542363 1240.33662368 -1085.8125 1098.6875 C-1085.96168884 1097.26612732 -1085.96168884 1097.26612732 -1086.1138916 1095.81604004 C-1089.32674456 1064.78375594 -1090.33600378 1033.8841527 -1090.26074219 1002.70507812 C-1090.24934871 997.95277531 -1090.25613672 993.20069665 -1090.26762104 988.44840145 C-1090.31519864 965.22567101 -1089.75367236 942.15885093 -1088 919 C-1087.926745 918.01279968 -1087.85348999 917.02559937 -1087.77801514 916.00848389 C-1087.35897543 910.47733506 -1086.86595204 904.95672881 -1086.3125 899.4375 C-1086.23140991 898.61667938 -1086.15031982 897.79585876 -1086.06677246 896.95016479 C-1079.69361292 833.18329633 -1067.07040476 770.45837691 -1049 709 C-1048.70122955 707.98347351 -1048.70122955 707.98347351 -1048.39642334 706.94641113 C-1026.39669955 632.36871698 -994.81236931 559.2936625 -950.87158203 486.09179688 C-949.09591242 483.15844442 -947.34010648 480.21418768 -945.58984375 477.265625 C-932.43210344 455.2154917 -918.09023171 433.77435384 -903 413 C-902.46246094 412.25814453 -901.92492187 411.51628906 -901.37109375 410.75195312 C-885.86240993 389.39660148 -869.53416392 368.6860719 -852.38574219 348.62402344 C-850.94270908 346.93285779 -849.50625183 345.23625381 -848.0703125 343.5390625 C-841.70216073 336.03344424 -835.14742473 328.73826368 -828.43066406 321.54394531 C-826.19914463 319.13573219 -824.01136461 316.68801605 -821.8125 314.25 C-815.09970646 306.91002576 -808.02205743 299.93315572 -800.95361328 292.93774414 C-796.86978678 288.88709044 -792.8143984 284.80833983 -788.76171875 280.7265625 C-787.2534077 279.21086753 -785.7446095 277.69565937 -784.2355957 276.18066406 C-783.2079943 275.1480389 -782.18129286 274.11451732 -781.15551758 273.08007812 C-764.81385546 256.60461849 -764.81385546 256.60461849 -760 255 C-760 254.34 -760 253.68 -760 253 C-758.7421875 251.6953125 -758.7421875 251.6953125 -756.875 250.125 C-755.77671875 249.19107422 -755.77671875 249.19107422 -754.65625 248.23828125 C-753.7796875 247.49964844 -752.903125 246.76101562 -752 246 C-750.37833058 244.61214545 -748.75973766 243.22074994 -747.14111328 241.8293457 C-745.33336544 240.27674171 -743.52236506 238.72799599 -741.7109375 237.1796875 C-739.2917862 235.11029302 -736.88061267 233.03222693 -734.4765625 230.9453125 C-727.11976817 224.57087023 -719.61658912 218.44355205 -711.91748047 212.48779297 C-709.86710005 210.89688155 -707.82563094 209.29499999 -705.78515625 207.69140625 C-689.91341386 195.2402678 -673.73626733 183.26421818 -657 172 C-656.01467285 171.33452148 -655.0293457 170.66904297 -654.01416016 169.98339844 C-639.20609037 159.99363486 -624.28268669 150.25398393 -609 141 C-608.15888672 140.48743652 -607.31777344 139.97487305 -606.45117188 139.44677734 C-595.63930435 132.85945531 -584.74014983 126.47109194 -573.61669922 120.42382812 C-571.75950286 119.41326933 -569.90458825 118.39851211 -568.05126953 117.38085938 C-519.06328363 90.507967 -467.88172277 68.05728875 -415 50 C-413.91685516 49.63004913 -413.91685516 49.63004913 -412.81182861 49.25262451 C-352.0889073 28.57168847 -289.51465452 13.95740191 -226 5 C-224.88803253 4.84144531 -224.88803253 4.84144531 -223.75360107 4.6796875 C-150.50681122 -5.73019809 -73.66037518 -7.26034344 0 0 Z " fill="#6694E4" transform="translate(1090,3)"/>
<path d="M0 0 C3.70938484 1.20406095 6.79231151 3.16366339 10.04052734 5.26928711 C11.09075577 5.93836342 11.09075577 5.93836342 12.16220093 6.62095642 C19.23089146 11.1457084 26.21537532 15.79866513 33.18270874 20.47744751 C37.10129891 23.10815373 41.0260858 25.72958637 44.95068359 28.35131836 C46.16764671 29.16449272 46.16764671 29.16449272 47.40919495 29.99409485 C56.06471682 35.77293346 64.75637633 41.49638904 73.45458984 47.21069336 C74.62529022 47.97991623 74.62529022 47.97991623 75.81964111 48.76467896 C79.01700017 50.86542923 82.21449959 52.96596546 85.41229248 55.0660553 C93.83974014 60.60105842 102.25988466 66.14713343 110.6796875 71.6937561 C129.47001905 84.07178507 148.26683868 96.43993977 167.06542969 108.80541992 C175.75927312 114.52417956 184.4525496 120.24380104 193.14593506 125.96325684 C195.52355613 127.52751173 197.90118089 129.09176104 200.27880859 130.65600586 C201.06316284 131.17203369 201.84751709 131.68806152 202.65563965 132.21972656 C207.37535447 135.32479572 212.09519609 138.42967204 216.81513977 141.53439331 C239.07933431 156.17951608 261.33812464 170.83282538 283.59375 185.4909668 C291.29813522 190.56523743 299.00288663 195.63895199 306.70761108 200.71270752 C310.9774524 203.52451326 315.24726991 206.33635514 319.51708984 209.14819336 C321.22542306 210.27319353 322.9337564 211.39819353 324.64208984 212.52319336 C355.39208984 232.77319336 386.14208984 253.02319336 416.89208984 273.27319336 C417.73769974 273.83005829 418.58330963 274.38692322 419.45454407 274.96066284 C421.16303044 276.08576387 422.87151637 277.2108656 424.58000183 278.33596802 C428.84848986 281.14692789 433.11698578 283.95787576 437.38549805 286.76879883 C445.96469385 292.41843455 454.54375432 298.06827561 463.12255859 303.71850586 C472.49198659 309.88941945 481.86195286 316.05951519 491.23223877 322.22912598 C493.78412168 323.90940794 496.33591566 325.5898249 498.88769531 327.27026367 C522.10836535 342.56540098 522.10836535 342.56540098 545.38769531 357.77099609 C556.29270746 364.87403339 567.1516268 372.04738053 578.01708984 379.21069336 C579.01935608 379.87145874 580.02162231 380.53222412 581.05426025 381.2130127 C583.92221595 383.10395827 586.79002309 384.99512878 589.65771484 386.88647461 C590.53162872 387.46285172 591.4055426 388.03922882 592.30593872 388.6330719 C593.51695755 389.43200111 593.51695755 389.43200111 594.75244141 390.24707031 C595.8108725 390.9453167 595.8108725 390.9453167 596.89068604 391.65766907 C598.51871119 392.73398576 600.14322191 393.81561474 601.76708984 394.89819336 C602.14110334 397.29943258 602.14110334 397.29943258 602.13968533 400.39163029 C602.14642721 401.56866015 602.15316909 402.74569001 602.16011527 403.95838743 C602.14829371 405.91903825 602.14829371 405.91903825 602.13623333 407.91929817 C602.13845026 409.31667186 602.14198389 410.71404398 602.14672282 412.11141139 C602.1559807 415.98202384 602.14636299 419.85240208 602.13388842 423.72299718 C602.123629 427.92219961 602.13068992 432.1213771 602.13562089 436.32058418 C602.14185764 443.69031351 602.13688446 451.05997038 602.12470627 458.42969131 C602.1066477 469.38829051 602.10569451 480.34684373 602.10833223 491.30545509 C602.11227992 509.7369567 602.10222706 528.16842612 602.08428001 546.59991837 C602.06654769 564.85755701 602.05498597 583.11518225 602.05172157 601.37282944 C602.05151535 602.50672362 602.05130914 603.64061781 602.05109667 604.80887243 C602.05008171 610.56701124 602.04917754 616.32515006 602.04831604 622.08328889 C602.04200962 662.90099405 602.02178311 703.71868168 601.9934082 744.53637695 C601.96586883 784.19783434 601.94461117 823.85928693 601.93188477 863.52075195 C601.93149019 864.74262664 601.93109561 865.96450132 601.93068907 867.22340251 C601.92673362 879.49362437 601.92290616 891.76384627 601.9191725 904.0340682 C601.91156322 929.0314099 601.90309947 954.02875129 601.89411926 979.02609253 C601.89370739 980.17550789 601.89329552 981.32492325 601.89287117 982.50916938 C601.86525477 1059.30551799 601.8177175 1136.10185689 601.76708984 1212.89819336 C534.49099575 1213.08669584 467.21487013 1213.26159453 399.93858337 1213.3639679 C398.94314145 1213.36548652 397.94769952 1213.36700515 396.92209268 1213.3685698 C375.28933595 1213.40149049 353.65657642 1213.43196268 332.02381271 1213.45991198 C321.41536997 1213.47363289 310.80692798 1213.48789495 300.19848633 1213.50244141 C299.14280938 1213.50387976 298.08713242 1213.50531811 296.99946526 1213.50680004 C262.77148719 1213.55368904 228.54370865 1213.63632384 194.31585151 1213.73746279 C159.14721491 1213.84119306 123.97868877 1213.90892662 88.80990178 1213.93125825 C83.84448886 1213.93442803 78.87907631 1213.93801004 73.91366386 1213.94184303 C72.93638328 1213.94258469 71.9591027 1213.94332634 70.95220755 1213.94409047 C55.20989029 1213.95709797 39.4679142 1214.00813933 23.72573616 1214.07334573 C7.90594038 1214.13806408 -7.91351659 1214.16285174 -23.73344015 1214.14670851 C-33.13685069 1214.13833115 -42.53902287 1214.16074018 -51.94221017 1214.22696633 C-58.22167418 1214.26817719 -64.50032617 1214.2695228 -70.77984597 1214.23834331 C-74.3597285 1214.22171295 -77.93726795 1214.22251889 -81.51690029 1214.27190837 C-103.8586676 1214.56248394 -103.8586676 1214.56248394 -108.81642067 1210.52865946 C-111.15832052 1207.72794377 -112.67764419 1205.18379855 -114.23291016 1201.89819336 C-115.39784476 1200.28370926 -116.58999604 1198.68806631 -117.82275391 1197.12475586 C-118.94122561 1195.59278657 -120.05708877 1194.05890959 -121.17041016 1192.52319336 C-126.28183455 1185.53170482 -131.47825671 1178.62695095 -136.78076172 1171.77905273 C-145.68936685 1160.24040211 -154.47449133 1148.61647421 -163.08349609 1136.8527832 C-167.60044704 1130.70321484 -172.26542707 1124.68096476 -176.97460938 1118.67797852 C-181.86397152 1112.42414322 -186.57822423 1106.05153881 -191.26855469 1099.64770508 C-195.68637152 1093.62115248 -200.20575615 1087.6874248 -204.78076172 1081.77905273 C-213.6819577 1070.24999863 -222.4631606 1058.63786527 -231.06152344 1046.88134766 C-235.78903703 1040.44219486 -240.6666336 1034.12818378 -245.61621094 1027.85839844 C-248.67424534 1023.97115064 -251.5556169 1020.05779288 -254.23291016 1015.89819336 C-252.97640715 1013.2563337 -251.62094381 1010.91158638 -249.86962891 1008.57006836 C-249.40145752 1007.94310059 -248.93328613 1007.31613281 -248.45092773 1006.67016602 C-247.94585693 1006.00291504 -247.44078613 1005.33566406 -246.92041016 1004.64819336 C-246.39278076 1003.94871582 -245.86515137 1003.24923828 -245.3215332 1002.52856445 C-236.75824773 991.24947615 -227.83646492 980.30905221 -218.23291016 969.89819336 C-216.95867187 968.46926758 -216.95867187 968.46926758 -215.65869141 967.01147461 C-176.58470212 923.31196984 -120.7149205 893.09519051 -63.61035156 881.38891602 C-61.5256575 880.95861872 -59.4470339 880.49912496 -57.36962891 880.03491211 C-53.67056126 879.23255595 -49.96207552 878.54087931 -46.23291016 877.89819336 C-45.48170898 877.7613916 -44.73050781 877.62458984 -43.95654297 877.48364258 C-29.38222421 874.92375728 -14.92720186 874.60374151 -0.17041016 874.58569336 C0.75284058 874.58219879 1.67609131 874.57870422 2.62731934 874.57510376 C13.87413673 874.55149908 24.65553343 875.15401572 35.76708984 876.89819336 C38.07871454 877.17639866 40.39114515 877.44805177 42.70458984 877.71069336 C91.38444638 884.27941877 138.84463972 903.95020494 177.76708984 933.89819336 C178.92036622 934.77498161 180.07400909 935.65128803 181.22802734 936.52709961 C187.82158626 941.54967805 194.32053614 946.68856305 200.76708984 951.89819336 C201.03714844 951.32254639 201.30720703 950.74689941 201.58544922 950.15380859 C202.78629124 947.86154012 204.13464299 945.88728389 205.67333984 943.80834961 C206.24681152 943.03120605 206.8202832 942.2540625 207.41113281 941.45336914 C208.02359863 940.63078613 208.63606445 939.80820313 209.26708984 938.96069336 C209.90146973 938.10459473 210.53584961 937.24849609 211.18945312 936.36645508 C215.82555992 930.12513591 220.53749381 923.94843831 225.29736328 917.80102539 C234.6762811 905.65828693 243.97447353 893.47417102 252.76708984 880.89819336 C251.46584628 877.9590016 250.19989082 876.13869569 247.70458984 874.12084961 C247.08237549 873.61424805 246.46016113 873.10764648 245.8190918 872.58569336 C244.80335083 871.78131836 244.80335083 871.78131836 243.76708984 870.96069336 C243.05576904 870.3922168 242.34444824 869.82374023 241.61157227 869.23803711 C208.32228081 842.87085652 171.21222115 822.24556716 131.29443359 807.83081055 C128.24938554 806.70715487 125.26193512 805.46120056 122.26708984 804.21069336 C113.31359815 800.71190692 103.78520939 798.78755612 94.44506836 796.59667969 C91.76708984 795.89819336 91.76708984 795.89819336 88.86035156 794.90258789 C46.48035985 781.14163399 -5.82401645 782.44759428 -49.23291016 787.89819336 C-50.45204102 788.04804687 -51.67117188 788.19790039 -52.92724609 788.35229492 C-68.29261726 790.27654109 -83.28428007 792.84890933 -98.23291016 796.89819336 C-99.14363281 797.13876465 -100.05435547 797.37933594 -100.99267578 797.62719727 C-127.20364794 804.61110092 -152.06392695 814.64721515 -176.23291016 826.89819336 C-177.64056641 827.60226318 -177.64056641 827.60226318 -179.07666016 828.32055664 C-191.31371434 834.45412225 -202.94742792 841.15144627 -214.23291016 848.89819336 C-214.96558105 849.4002832 -215.69825195 849.90237305 -216.453125 850.41967773 C-224.96416889 856.28124782 -233.2685335 862.30605727 -241.23291016 868.89819336 C-242.09916016 869.59170898 -242.96541016 870.28522461 -243.85791016 870.99975586 C-249.90357571 875.86033357 -255.66596292 880.95039335 -261.34228516 886.23022461 C-263.87200926 888.56509158 -266.44757794 890.82764383 -269.04541016 893.08569336 C-274.12297356 897.63603372 -278.7109825 902.59341964 -283.33569336 907.59423828 C-288.46940603 913.13234307 -293.76663768 918.47977431 -299.14282227 923.78173828 C-302.96989259 927.57398447 -306.59223383 931.44185317 -309.93603516 935.67553711 C-311.23291016 936.89819336 -311.23291016 936.89819336 -314.23291016 936.89819336 C-315.78833008 935.30371094 -315.78833008 935.30371094 -317.46337891 933.04272461 C-318.40818115 931.78371338 -318.40818115 931.78371338 -319.37207031 930.49926758 C-320.04802246 929.57903809 -320.72397461 928.65880859 -321.42041016 927.71069336 C-322.86931867 925.77165942 -324.31854626 923.83286387 -325.76806641 921.89428711 C-326.88012451 920.39744385 -326.88012451 920.39744385 -328.01464844 918.87036133 C-330.76756836 915.18182433 -333.56318708 911.52734147 -336.36352539 907.87475586 C-342.70357161 899.60452296 -348.93077585 891.25998375 -355.08496094 882.85083008 C-359.60415307 876.69810217 -364.2715402 870.67280425 -368.98339844 864.66699219 C-373.77683495 858.53639693 -378.39141071 852.2862272 -382.98291016 846.00366211 C-386.97417822 840.56021393 -391.06649158 835.20851704 -395.23291016 829.89819336 C-400.62134812 823.03034051 -405.83236342 816.0511736 -410.98291016 809.00366211 C-414.97417822 803.56021393 -419.06649158 798.20851704 -423.23291016 792.89819336 C-428.01044965 786.80896334 -432.66603687 780.64696134 -437.23291016 774.39819336 C-441.90540179 768.005742 -446.66864353 761.69878624 -451.54541016 755.46069336 C-452.12564941 754.71674316 -452.70588867 753.97279297 -453.30371094 753.20629883 C-456.50353148 749.10543054 -456.50353148 749.10543054 -459.71777344 745.01586914 C-461.02327811 743.35826688 -462.31695265 741.69213274 -463.60791016 740.02319336 C-464.67138672 738.66581055 -464.67138672 738.66581055 -465.75634766 737.28100586 C-467.23291016 734.89819336 -467.23291016 734.89819336 -467.23291016 730.89819336 C-465.48697808 729.02026642 -463.80138244 727.42074116 -461.85791016 725.77319336 C-460.74933859 724.79867549 -459.64259713 723.82207224 -458.53759766 722.84350586 C-457.98040039 722.35269531 -457.42320312 721.86188477 -456.84912109 721.35620117 C-454.46894603 719.20901002 -452.22801575 716.93526354 -449.98291016 714.64819336 C-446.64076736 711.26909163 -443.22743462 708.08506446 -439.61572266 704.99975586 C-436.98509923 702.67963225 -434.43675892 700.28412576 -431.88574219 697.87719727 C-426.08777654 692.40766297 -420.24175468 687.12189046 -414.00634766 682.14819336 C-412.01452135 680.5322892 -410.07248725 678.90162145 -408.14697266 677.21069336 C-338.30020768 615.87575769 -247.84900743 571.54679253 -92.23291016 536.89819336 C-91.11166748 536.72795654 -89.9904248 536.55771973 -88.83520508 536.38232422 C-80.1768078 535.09759261 -71.50906102 534.15626138 -62.79541016 533.33569336 C-61.50570312 533.21000977 -60.21599609 533.08432617 -58.88720703 532.95483398 C-55.00390568 532.58342159 -51.11932645 532.23535168 -47.23291016 531.89819336 C-46.13881836 531.79885498 -45.04472656 531.6995166 -43.91748047 531.59716797 C7.11228776 527.53614096 59.86868776 530.72278058 110.09570312 540.21069336 C113.37637924 540.8250293 116.65989178 541.40361437 119.95068359 541.96069336 C178.3622221 551.93040074 234.88964705 572.42917715 287.76708984 598.89819336 C288.77078613 599.39609375 289.77448242 599.89399414 290.80859375 600.40698242 C308.04259722 608.99248026 324.45991303 618.68912181 340.76708984 628.89819336 C341.7176123 629.492854 342.66813477 630.08751465 343.64746094 630.70019531 C350.0860713 634.76120102 356.393884 638.98797664 362.64208984 643.33569336 C363.62588623 644.02018555 364.60968262 644.70467773 365.62329102 645.40991211 C379.3959579 655.06366087 392.65993208 665.36511449 405.76708984 675.89819336 C406.73259766 676.66647461 407.69810547 677.43475586 408.69287109 678.22631836 C414.95450846 683.26842242 420.86779998 688.60693424 426.73974609 694.08959961 C429.82393619 696.96567191 432.98078168 699.74968002 436.18115234 702.49584961 C437.77553336 703.90565942 439.27836249 705.37788694 440.76708984 706.89819336 C439.22581633 710.6108743 436.95865751 712.87935034 434.07958984 715.64819336 C431.07950375 718.58417505 428.16387172 721.5044829 425.45458984 724.71069336 C422.24470043 728.46954248 418.77918575 731.9256147 415.26708984 735.39819336 C411.83863325 738.78824663 408.44448199 742.15013394 405.32958984 745.83569336 C401.33989974 750.55631906 396.88566668 754.82791825 392.47631836 759.15185547 C391.88391357 759.73588135 391.29150879 760.31990723 390.68115234 760.92163086 C389.87605225 761.70932861 389.87605225 761.70932861 389.0546875 762.51293945 C387.65432981 763.88923126 387.65432981 763.88923126 386.76708984 765.89819336 C382.24122886 764.66386764 379.97042058 762.22741515 376.84130859 758.94897461 C373.63244295 755.77636734 370.0928624 753.03658651 366.57958984 750.21069336 C363.9574309 748.05469601 361.45100416 745.82252233 358.95458984 743.52319336 C305.9678763 695.4441974 238.89969711 662.8451788 171.76708984 639.89819336 C170.95191895 639.61427734 170.13674805 639.33036133 169.296875 639.0378418 C146.22920377 631.04374412 121.75594699 625.18500216 97.65844727 621.36743164 C95.38223972 620.99802601 93.10965711 620.60628084 90.83862305 620.20629883 C80.48415769 618.39235887 70.14089617 617.04909316 59.68041992 616.01782227 C57.20136676 615.7728749 54.72350188 615.51783398 52.24560547 615.26147461 C-14.68513514 608.4375813 -85.82150207 612.89138625 -150.19970703 633.27563477 C-152.45564516 633.96639392 -154.72322456 634.59846375 -156.99853516 635.22241211 C-177.30574051 640.79506896 -196.97274912 647.75651561 -216.35791016 655.96069336 C-217.03470825 656.245979 -217.71150635 656.53126465 -218.40881348 656.82519531 C-227.95435379 660.86474382 -237.23725445 665.31361323 -246.47485352 670.01113892 C-248.87845162 671.2239112 -251.301963 672.39332401 -253.72900391 673.55834961 C-273.78247375 683.2565676 -292.52253434 694.95409777 -311.04541016 707.27319336 C-311.66939697 707.68753632 -312.29338379 708.10187927 -312.9362793 708.52877808 C-323.84134569 715.78842317 -334.32626526 723.52593928 -344.60791016 731.64819336 C-345.17123047 732.0903418 -345.73455078 732.53249023 -346.31494141 732.98803711 C-350.00790359 735.89635144 -353.63337386 738.87501786 -357.23291016 741.89819336 C-355.64045692 747.05854814 -352.42933402 750.7514102 -349.10791016 754.89819336 C-347.83350497 756.5133157 -346.56010721 758.12923333 -345.28759766 759.74584961 C-344.62211914 760.58905762 -343.95664062 761.43226563 -343.27099609 762.30102539 C-339.88521333 766.61558661 -336.55604478 770.97279007 -333.23291016 775.33569336 C-332.56767334 776.20871094 -331.90243652 777.08172852 -331.21704102 777.98120117 C-326.07941238 784.74324085 -321.01977604 791.56056809 -316.01220703 798.41943359 C-312.18223021 803.65635263 -308.24083467 808.79624417 -304.23291016 813.89819336 C-300.44004723 811.11234435 -296.66602059 808.32992711 -293.11181641 805.24194336 C-283.84127061 797.23937082 -273.85139501 790.42081659 -263.67041016 783.64819336 C-262.97279572 783.18292236 -262.27518127 782.71765137 -261.556427 782.23828125 C-247.79074041 773.07690222 -233.83599649 764.50092031 -219.10791016 756.96069336 C-217.35788696 756.06193481 -217.35788696 756.06193481 -215.57250977 755.14501953 C-212.13231618 753.38348046 -208.68375911 751.63877342 -205.23291016 749.89819336 C-204.30140137 749.42704102 -203.36989258 748.95588867 -202.41015625 748.47045898 C-171.29466567 732.85142826 -138.13358329 721.64854927 -104.23291016 713.89819336 C-103.29125 713.67679688 -102.34958984 713.45540039 -101.37939453 713.22729492 C-84.50238541 709.28855496 -67.51226345 707.03117622 -50.3046875 705.13418579 C-48.15551704 704.88937765 -46.00995358 704.62171181 -43.86376953 704.35205078 C-31.02112893 702.7941844 -18.28540897 702.53834034 -5.35791016 702.58569336 C-3.72184814 702.58942459 -3.72184814 702.58942459 -2.05273438 702.5932312 C66.39701305 702.83294479 132.2952653 716.77546034 194.76708984 744.89819336 C195.68490234 745.3089209 196.60271484 745.71964844 197.54833984 746.14282227 C236.63241238 763.7746813 272.34126411 787.99179936 304.76708984 815.89819336 C305.48251953 816.51178711 306.19794922 817.12538086 306.93505859 817.75756836 C318.92251482 828.13845829 330.28571788 839.14761738 341.53540039 850.31640625 C343.24955272 852.01378058 344.96907903 853.70574289 346.69360352 855.39257812 C349.20540827 857.85003016 351.70073604 860.32315973 354.19287109 862.80053711 C354.96971756 863.5547142 355.74656403 864.3088913 356.54695129 865.08592224 C357.24906235 865.79088333 357.9511734 866.49584442 358.67456055 867.22216797 C359.29788773 867.83740829 359.9212149 868.45264862 360.56343079 869.08653259 C361.76708984 870.89819336 361.76708984 870.89819336 361.53390503 873.01513672 C360.65012476 875.18542279 359.56782701 876.73142273 358.09912109 878.55834961 C357.54289062 879.25959961 356.98666016 879.96084961 356.41357422 880.68334961 C355.80835938 881.43487305 355.20314453 882.18639648 354.57958984 882.96069336 C349.51483082 889.35280443 344.57106349 895.80780376 339.76708984 902.39819336 C335.20112216 908.64760238 330.54457329 914.80896928 325.76708984 920.89819336 C320.28557864 927.88535241 314.97875504 934.9843892 309.73144531 942.14868164 C305.31362848 948.17523424 300.79424385 954.10896191 296.21923828 960.01733398 C287.90674769 970.78388198 279.67518482 981.6089487 271.64208984 992.58569336 C266.55684722 999.53437379 261.3313508 1006.35512769 256.01660156 1013.12939453 C251.83237734 1018.48083397 247.77519803 1023.91388461 243.76708984 1029.39819336 C238.64839428 1036.40212279 233.39325183 1043.27889177 228.03686523 1050.10229492 C223.04761894 1056.48122713 218.2342531 1062.98112552 213.47216797 1069.53100586 C210.3707098 1073.78401374 207.18834212 1077.8971758 203.76708984 1081.89819336 C199.85557794 1078.13630213 196.43902966 1074.15587028 193.07958984 1069.89819336 C192.29793457 1068.91459839 192.29793457 1068.91459839 191.50048828 1067.91113281 C187.71122538 1063.1295812 183.98242692 1058.30305249 180.27172852 1053.46044922 C164.99518989 1033.53252827 149.02184911 1014.90658178 128.76708984 999.89819336 C127.64728074 999.04795591 126.52748895 998.19769565 125.40771484 997.34741211 C110.16709703 985.94729755 93.37686641 977.94561541 75.76708984 970.89819336 C74.71932373 970.46531006 74.71932373 970.46531006 73.65039062 970.02368164 C54.23203958 962.0612447 32.07230597 957.84896146 11.10693359 957.65991211 C10.20753052 957.65016357 9.30812744 957.64041504 8.38146973 957.63037109 C-10.53207473 957.46740057 -28.74886677 957.43045139 -47.23291016 961.89819336 C-48.0532373 962.0801123 -48.87356445 962.26203125 -49.71875 962.44946289 C-68.2548398 966.56083742 -85.51512928 974.01912813 -102.23291016 982.89819336 C-102.87115723 983.22867676 -103.5094043 983.55916016 -104.16699219 983.8996582 C-120.82796876 992.55433069 -135.82123304 1003.7809842 -149.23291016 1016.89819336 C-147.94195477 1020.4755585 -146.4266998 1023.24013615 -144.10009766 1026.24194336 C-143.46700684 1027.0651709 -142.83391602 1027.88839844 -142.18164062 1028.73657227 C-141.15514404 1030.05407471 -141.15514404 1030.05407471 -140.10791016 1031.39819336 C-138.64947844 1033.29134674 -137.19114793 1035.18457809 -135.73291016 1037.07788086 C-134.98525391 1038.04435547 -134.23759766 1039.01083008 -133.46728516 1040.0065918 C-129.99631514 1044.49852459 -126.55001577 1049.00912253 -123.10791016 1053.52319336 C-122.11839355 1054.81966797 -122.11839355 1054.81966797 -121.10888672 1056.14233398 C-116.03213121 1062.80978957 -111.05135007 1069.54414593 -106.09521484 1076.30151367 C-101.71448884 1082.26702436 -97.23392436 1088.14316383 -92.70263672 1093.99536133 C-89.53311148 1098.09889616 -86.38224457 1102.21665486 -83.23291016 1106.33569336 C-82.27215576 1107.58648682 -82.27215576 1107.58648682 -81.29199219 1108.86254883 C-80.65374512 1109.69802246 -80.01549805 1110.53349609 -79.35791016 1111.39428711 C-78.71560939 1112.20539802 -78.07330863 1113.01650893 -77.4115442 1113.85219896 C-75.23291016 1116.89819336 -75.23291016 1116.89819336 -73.46697009 1120.43766177 C-70.96836078 1125.24214661 -68.29210463 1129.79876811 -62.98320481 1131.70670125 C-55.99306268 1133.05428046 -48.86812711 1132.73964781 -41.78353882 1132.61972046 C-39.36359446 1132.62996962 -36.94366964 1132.64636686 -34.52380371 1132.66838074 C-29.25951081 1132.70216318 -23.9979644 1132.6924824 -18.73397517 1132.64452052 C-10.80565801 1132.57256521 -2.87881597 1132.5825204 5.04971372 1132.60771565 C18.33712693 1132.64774266 31.62368053 1132.62444801 44.91098022 1132.56240845 C62.87739253 1132.47872412 80.84200178 1132.48245168 98.80883789 1132.50097656 C142.00332194 1132.50126041 185.19773723 1132.37975368 228.39208984 1132.27319336 C324.87583984 1132.14944336 421.35958984 1132.02569336 520.76708984 1131.89819336 C520.76708984 903.20819336 520.76708984 674.51819336 520.76708984 438.89819336 C519.11708984 438.23819336 517.46708984 437.57819336 515.76708984 436.89819336 C513.84177037 435.71771431 511.94670879 434.48718505 510.07568359 433.22241211 C509.27013031 432.68115692 509.27013031 432.68115692 508.44830322 432.12896729 C507.29747911 431.3551266 506.14803064 430.57923686 504.99984741 429.80148315 C501.9339213 427.72516734 498.85745176 425.66455323 495.78271484 423.60131836 C495.17018356 423.18965927 494.55765228 422.77800018 493.92655945 422.35386658 C489.13247368 419.13432622 484.30620183 415.96793013 479.45458984 412.83569336 C469.96447575 406.69638255 460.5205278 400.48772861 451.07958984 394.27319336 C450.26876953 393.73949127 449.45794922 393.20578918 448.62255859 392.65591431 C443.53016952 389.30371258 438.43838697 385.9505905 433.34680176 382.59716797 C429.95245814 380.36168439 426.55786705 378.12657675 423.16326904 375.89147949 C411.16593005 367.9920852 399.16966959 360.09105357 387.17346191 352.18994141 C381.1422406 348.21758671 375.11096071 344.24532099 369.07958984 340.27319336 C367.80430923 339.43331879 367.80430923 339.43331879 366.50326538 338.57647705 C353.47873977 329.99898472 340.45123075 321.42603696 327.42202759 312.85565186 C314.16964225 304.13836033 300.9210858 295.41526695 287.67382812 286.69018555 C275.37397791 278.58920974 263.07169246 270.49194873 250.76708984 262.39819336 C237.6605346 253.77681839 224.5563961 245.15178369 211.45458984 236.52319336 C210.60464447 235.96343811 209.7546991 235.40368286 208.8789978 234.82696533 C201.97705134 230.28144429 195.07525373 225.73569726 188.17346191 221.18994141 C148.92107559 195.33706797 109.65720604 169.50174442 70.37263489 143.69779968 C68.94681457 142.76112873 67.52110511 141.82428902 66.09550476 140.88728333 C62.52561063 138.54106761 58.95413396 136.19734139 55.37915039 133.85888672 C48.04801413 129.05848581 40.74520881 124.22111587 33.48666382 119.31143188 C29.71751304 116.764441 25.93924762 114.23115427 22.16021729 111.69885254 C20.32348309 110.46259147 18.49118121 109.21971812 16.66351318 107.97009277 C14.11771194 106.23018821 11.5577591 104.51330452 8.99365234 102.80053711 C8.23381042 102.27268112 7.47396851 101.74482513 6.69110107 101.20097351 C2.71836084 98.41576473 2.71836084 98.41576473 -1.91015625 98.37915039 C-3.05991943 99.13107666 -3.05991943 99.13107666 -4.23291016 99.89819336 C-5.50956543 100.66184204 -5.50956543 100.66184204 -6.81201172 101.44091797 C-7.73981445 102.05459229 -8.66761719 102.6682666 -9.62353516 103.30053711 C-11.24376587 104.36715576 -11.24376587 104.36715576 -12.89672852 105.45532227 C-14.09215363 106.24873224 -15.28754633 107.04219105 -16.48291016 107.83569336 C-17.75679297 108.67646056 -19.03097189 109.51677926 -20.30541992 110.35668945 C-23.10259322 112.20108058 -25.89804499 114.04804448 -28.69238281 115.89672852 C-33.43443561 119.03301229 -38.18279331 122.15967129 -42.93212891 125.28491211 C-49.87606729 129.85466196 -56.81880907 134.42621912 -63.76025391 138.99975586 C-73.581562 145.4703291 -83.40670747 151.93505634 -93.23291016 158.39819336 C-106.40234685 167.060657 -119.56869054 175.72780356 -132.73291016 184.39819336 C-146.67823683 193.58304606 -160.62635536 202.76363805 -174.57714844 211.94018555 C-186.96505224 220.08883373 -199.34978296 228.24228845 -211.73291016 236.39819336 C-224.95991641 245.10981257 -238.18866314 253.8187762 -251.42041016 262.52319336 C-252.19983978 263.03593811 -252.97926941 263.54868286 -253.78231812 264.07696533 C-260.04702901 268.19812531 -266.3119017 272.31903931 -272.57678223 276.43994141 C-278.06640157 280.0509088 -283.55595489 283.66197654 -289.04541016 287.27319336 C-289.82459808 287.78577698 -290.60378601 288.2983606 -291.40658569 288.82647705 C-304.71561969 297.58198229 -318.02101153 306.3430105 -331.3253479 315.10565186 C-344.40658223 323.72126966 -357.49083941 332.33227805 -370.57714844 340.94018555 C-383.83081859 349.65832681 -397.08070589 358.38220025 -410.32919312 367.10821533 C-421.79217589 374.65813711 -433.25743472 382.20458288 -444.72525024 389.74716187 C-458.8545423 399.04037676 -472.97980549 408.33969044 -487.10092163 417.64532471 C-489.04229702 418.9246586 -490.98372247 420.20391653 -492.92520142 421.48309326 C-495.63861885 423.27094058 -498.35181454 425.05912389 -501.06494141 426.84741211 C-501.8602124 427.37136063 -502.6554834 427.89530914 -503.47485352 428.43513489 C-504.2339502 428.93558823 -504.99304688 429.43604156 -505.77514648 429.95166016 C-506.50577301 430.43218842 -507.23639954 430.91271667 -507.98916626 431.4078064 C-509.57780056 432.46304263 -511.15806386 433.53093166 -512.73226929 434.60757446 C-513.54032013 435.15827606 -514.34837097 435.70897766 -515.1809082 436.27636719 C-515.91029099 436.77864334 -516.63967377 437.28091949 -517.39115906 437.79841614 C-519.23291016 438.89819336 -519.23291016 438.89819336 -521.23291016 438.89819336 C-521.23291016 667.58819336 -521.23291016 896.27819336 -521.23291016 1131.89819336 C-437.74291016 1131.89819336 -354.25291016 1131.89819336 -268.23291016 1131.89819336 C-262.72791918 1138.62651566 -257.3343176 1145.30188234 -252.17041016 1152.27319336 C-250.86641068 1154.02240439 -249.56169956 1155.77108509 -248.25634766 1157.51928711 C-247.59344727 1158.40729004 -246.93054688 1159.29529297 -246.24755859 1160.21020508 C-242.95447785 1164.60390588 -239.62618638 1168.97053743 -236.29541016 1173.33569336 C-235.64008301 1174.19557861 -234.98475586 1175.05546387 -234.30957031 1175.94140625 C-230.82989167 1180.50460564 -227.34084194 1185.06038837 -223.84228516 1189.60913086 C-223.12290771 1190.54700439 -222.40353027 1191.48487793 -221.66235352 1192.45117188 C-220.29375144 1194.23520016 -218.92235709 1196.01709138 -217.54760742 1197.79638672 C-216.92426514 1198.60986572 -216.30092285 1199.42334473 -215.65869141 1200.26147461 C-215.11639893 1200.96570557 -214.57410645 1201.66993652 -214.01538086 1202.39550781 C-211.59774138 1205.79000477 -209.44165111 1209.36420784 -207.23291016 1212.89819336 C-337.58291016 1212.89819336 -467.93291016 1212.89819336 -602.23291016 1212.89819336 C-603.56540536 1008.26820645 -603.56540536 1008.26820645 -603.82235396 929.85721326 C-603.88971203 909.35394038 -603.95861249 888.85067362 -604.03226795 868.34742229 C-604.04117274 865.86747939 -604.05002899 863.38753633 -604.05883608 860.90759309 C-604.19957469 821.39109046 -604.44714475 781.87614879 -604.75071844 742.36058922 C-605.06222468 701.73856098 -605.26518178 661.11739545 -605.33210483 620.49419302 C-605.34161355 614.75291792 -605.35235955 609.01164574 -605.36385918 603.2703743 C-605.36608414 602.14044051 -605.3683091 601.01050672 -605.37060148 599.84633252 C-605.40955836 581.67676507 -605.56249534 563.50986977 -605.75836728 545.34139096 C-605.95297884 527.06315812 -606.02677573 508.78756641 -605.97845561 490.50833444 C-605.95560286 480.60727767 -605.98614426 470.71342359 -606.16669083 460.81380081 C-607.25112116 399.05247514 -607.25112116 399.05247514 -597.08340486 387.4518001 C-590.18495031 380.90319045 -582.14249759 377.19212197 -573.18438518 374.2957871 C-567.46876601 372.41085453 -562.75836497 369.0671775 -557.85791016 365.64819336 C-556.10771835 364.53221374 -554.35308323 363.42314341 -552.59228516 362.32397461 C-546.14662753 358.22943601 -539.80554562 353.98134747 -533.46081543 349.73275757 C-522.0444948 342.08929491 -510.58182496 334.51739035 -499.10791016 326.96069336 C-498.16943237 326.34253754 -497.23095459 325.72438171 -496.26403809 325.0874939 C-491.47344211 321.93218383 -486.68244041 318.77749071 -481.89111328 315.62329102 C-476.46795047 312.0531311 -471.04563866 308.48168055 -465.62353516 304.90991211 C-444.39905603 290.92906215 -423.16807216 276.95810848 -401.93457031 262.9909668 C-397.20445208 259.87952254 -392.47451408 256.76780438 -387.74462891 253.65600586 C-386.96027466 253.13997803 -386.17592041 252.6239502 -385.36779785 252.09228516 C-382.98949901 250.52759237 -380.61120385 248.96289398 -378.23291016 247.39819336 C-360.79697988 235.92693937 -360.79697988 235.92693937 -352.18490601 230.26202393 C-335.03128148 218.97857045 -317.87997561 207.6916124 -300.73291016 196.39819336 C-287.50588834 187.68659775 -274.27715719 178.97761053 -261.04541016 170.27319336 C-260.26598053 169.76044861 -259.4865509 169.24770386 -258.6835022 168.71942139 C-252.4187913 164.59826141 -246.15391862 160.47734741 -239.88903809 156.35644531 C-234.39941874 152.74547792 -228.90986543 149.13441018 -223.42041016 145.52319336 C-222.64122223 145.01060974 -221.8620343 144.49802612 -221.05923462 143.96990967 C-207.75020063 135.21440443 -194.44480879 126.45337622 -181.14047241 117.69073486 C-168.05923808 109.07511706 -154.9749809 100.46410867 -141.88867188 91.85620117 C-129.50076809 83.707553 -117.11602282 75.55412032 -104.73291016 67.39819336 C-91.56869046 58.72780351 -78.40227431 50.06076736 -65.23291016 41.39819336 C-51.33464006 32.25605931 -37.4390625 23.10984374 -23.54541016 13.96069336 C-22.64121338 13.36530762 -21.7370166 12.76992188 -20.80541992 12.15649414 C-18.2564459 10.47804391 -15.70755303 8.79947052 -13.15869141 7.12084961 C-12.01778801 6.36959557 -12.01778801 6.36959557 -10.85383606 5.60316467 C-10.15433334 5.14244064 -9.45483063 4.68171661 -8.73413086 4.20703125 C-8.12704788 3.80722549 -7.5199649 3.40741974 -6.89448547 2.99549866 C-2.2062835 -0.10059263 -2.2062835 -0.10059263 0 0 Z " fill="#FEFEFE" transform="translate(1000.23291015625,347.101806640625)"/>
</svg>
